/* XPM */
static char * haskell_xpm[] = {
"21 15 3 1",
" 	g None",
".	g #666666",
"+	g #999999",
"....  +++            ",
" ...  ++++           ",
"  ...  +++           ",
"  ....  +++          ",
"   ...  +++          ",
"    ...  +++  .......",
"    ....  +++ .......",
"     ...  +++        ",
"    .... +++++  .....",
"    ...  ++++++ .....",
"   ...  +++++++      ",
"  ....  +++  +++     ",
"  ...  +++   ++++    ",
" ...  ++++    +++    ",
"....  +++      +++   "};
